M48
;GenerationSoftware,Autodesk,EAGLE,9.6.0*%
;CreationDate,2020-05-12T11:12:14Z*%
FMAT,2
ICI,OFF
METRIC,TZ,000.000
T4C0.300
T3C0.700
T2C0.750
T1C2.100
%
G90
M71
T1
X2794Y10160
X2794Y-10160
X33274Y-10160
X33274Y10160
T2
X9144Y-11430
X11684Y-11430
X14224Y-11430
X16764Y-11430
X19304Y-11430
X21844Y-11430
X24384Y-11430
X26924Y-11430
X26924Y11430
X24384Y11430
X21844Y11430
X19304Y11430
X16764Y11430
X14224Y11430
X11684Y11430
X9144Y11430
T3
X7306Y8839
X5506Y8839
T4
X29146Y8674
X29146Y10046
X30251Y9309
X28713Y1284
X28026Y484
X26789Y-319
X31448Y5239
X31210Y4318
X31191Y3223
X31147Y943
X31153Y-200
X29731Y-724
X28512Y-1547
X33195Y7471
X32569Y5309
X33645Y5296
X26817Y-1845
X29305Y2223
X22305Y-4502
X25282Y-4444
X24419Y-4331
X31153Y-8534
X31153Y-7264
X31153Y-5994
X31153Y-4724
X31153Y-3454
X31153Y-2343
X26279Y9852
X21606Y1191
X22400Y1191
X23193Y1191
X23987Y-397
X23193Y-397
X23987Y397
X21606Y-397
X23987Y-1191
X12900Y-2696
X12900Y-3569
X13773Y-2696
X14646Y-2696
X30442Y-921
X29335Y-3508
X30353Y-10287
X28042Y-10287
X29235Y-10287
X31153Y-1232
X21450Y-4420
X20511Y-4547
X27699Y-8101
X20269Y-7381
X20052Y8450
X28165Y10528
X28191Y9360
X10716Y4324
X27043Y5437
X5310Y-11136
X6001Y-11708
X13466Y6219
X13468Y7683
X9881Y6851
X12359Y9495
X15494Y10228
X18632Y10103
X13538Y10074
X21174Y10022
X25371Y9151
X25825Y-2618
X26777Y-3033
X11941Y4731
X28277Y2223
X1035Y-8176
X4500Y-7340
X13446Y4731
X1054Y8153
X31166Y2143
X31686Y7699
X22618Y9821
X23120Y10351
X7431Y-4234
X4393Y5571
X4415Y-5547
X5040Y-11978
X4778Y12065
X7398Y12065
X23987Y1191
X21606Y397
X23193Y397
X22400Y397
X21606Y-1191
X22400Y-1191
X23193Y-1191
X13773Y-3569
X14583Y-3569
X13773Y-4442
X12900Y-4442
X14583Y-4442
X22400Y-397
X20269Y-6491
X8490Y9862
X15378Y-8040
X11975Y-6237
X7533Y-4818
X9823Y9887
X12649Y-8369
X24967Y9560
X23663Y9826
X26222Y-4597
X27213Y-4622
X30478Y48
X30239Y-1734
X30239Y-2896
X30239Y-4140
X29477Y-2394
X29350Y-1505
X27699Y-7212
X27699Y-6323
X27699Y-5434
X20269Y-5550
X20269Y-8270
X21239Y-8345
X22131Y-8345
X24991Y-8495
X25982Y-8495
X26896Y-8420
X21501Y-3658
X8811Y2292
X9395Y2623
X8216Y-8345
X26281Y5437
X24540Y9161
X7418Y4250
X7209Y4777
X24050Y-8345
X23106Y-8345
X14322Y2051
X11151Y940
X18491Y-3607
X10401Y8868
X28118Y-3632
X16259Y-1003
X15758Y-5896
X21087Y3812
X17399Y-518
X20523Y-3124
X18573Y4317
X10719Y5493
X21058Y4589
X19837Y-2489
X20382Y3678
X8458Y335
X9017Y-609
X13406Y-608
X13406Y1373
X9779Y-1118
X8458Y1562
X12616Y-714
X7010Y-10096
X27260Y-2425
X23920Y-3746
X27440Y1508
X24005Y8441
X23144Y9304
X17361Y7801
X23584Y3519
X28998Y-8339
X19880Y2530
X28736Y-2428
X13721Y2445
X11876Y-825
X11144Y-1022
X11261Y3400
X9508Y-3863
X14323Y1321
X29385Y3492
X2794Y11685
X2794Y8635
X4319Y10160
X1269Y10160
X1719Y11235
X1719Y9085
X3869Y9085
X3869Y11235
X29385Y4763
X2794Y-8635
X2794Y-11685
X4319Y-10160
X1269Y-10160
X1719Y-9085
X1719Y-11235
X3869Y-11235
X3869Y-9085
X29146Y6032
X33274Y-8635
X33274Y-11685
X34799Y-10160
X31749Y-10160
X32199Y-9085
X32199Y-11235
X34349Y-11235
X34349Y-9085
X29146Y7302
X33274Y11685
X33274Y8635
X34799Y10160
X31749Y10160
X32199Y11235
X32199Y9085
X34349Y9085
X34349Y11235
M30