G04 EAGLE Gerber RS-274X export*
G75*
%MOMM*%
%FSLAX34Y34*%
%LPD*%
%INSolderpaste Top*%
%IPPOS*%
%AMOC8*
5,1,8,0,0,1.08239X$1,22.5*%
G01*
%ADD10C,0.300000*%
%ADD11C,0.363000*%
%ADD12C,0.330000*%
%ADD13C,0.264000*%
%ADD14C,0.187834*%
%ADD15R,1.300000X1.300000*%
%ADD16C,0.402334*%
%ADD17C,0.140000*%
%ADD18R,0.600000X0.600000*%
%ADD19C,0.550000*%
%ADD20C,0.420000*%
%ADD21C,1.000000*%
%ADD22C,0.150000*%


D10*
X95195Y-64714D02*
X87195Y-64714D01*
X87195Y-57714D01*
X95195Y-57714D01*
X95195Y-64714D01*
X95195Y-61864D02*
X87195Y-61864D01*
X87195Y-59014D02*
X95195Y-59014D01*
X104195Y-64714D02*
X112195Y-64714D01*
X104195Y-64714D02*
X104195Y-57714D01*
X112195Y-57714D01*
X112195Y-64714D01*
X112195Y-61864D02*
X104195Y-61864D01*
X104195Y-59014D02*
X112195Y-59014D01*
X312541Y60000D02*
X320541Y60000D01*
X312541Y60000D02*
X312541Y67000D01*
X320541Y67000D01*
X320541Y60000D01*
X320541Y62850D02*
X312541Y62850D01*
X312541Y65700D02*
X320541Y65700D01*
X329541Y60000D02*
X337541Y60000D01*
X329541Y60000D02*
X329541Y67000D01*
X337541Y67000D01*
X337541Y60000D01*
X337541Y62850D02*
X329541Y62850D01*
X329541Y65700D02*
X337541Y65700D01*
X210876Y-52016D02*
X210876Y-60016D01*
X210876Y-52016D02*
X217876Y-52016D01*
X217876Y-60016D01*
X210876Y-60016D01*
X210876Y-57166D02*
X217876Y-57166D01*
X217876Y-54316D02*
X210876Y-54316D01*
X210876Y-69016D02*
X210876Y-77016D01*
X210876Y-69016D02*
X217876Y-69016D01*
X217876Y-77016D01*
X210876Y-77016D01*
X210876Y-74166D02*
X217876Y-74166D01*
X217876Y-71316D02*
X210876Y-71316D01*
X294886Y-88448D02*
X302886Y-88448D01*
X302886Y-95448D01*
X294886Y-95448D01*
X294886Y-88448D01*
X294886Y-92598D02*
X302886Y-92598D01*
X302886Y-89748D02*
X294886Y-89748D01*
X285886Y-88448D02*
X277886Y-88448D01*
X285886Y-88448D02*
X285886Y-95448D01*
X277886Y-95448D01*
X277886Y-88448D01*
X277886Y-92598D02*
X285886Y-92598D01*
X285886Y-89748D02*
X277886Y-89748D01*
X21048Y65518D02*
X13048Y65518D01*
X13048Y72518D01*
X21048Y72518D01*
X21048Y65518D01*
X21048Y68368D02*
X13048Y68368D01*
X13048Y71218D02*
X21048Y71218D01*
X30048Y65518D02*
X38048Y65518D01*
X30048Y65518D02*
X30048Y72518D01*
X38048Y72518D01*
X38048Y65518D01*
X38048Y68368D02*
X30048Y68368D01*
X30048Y71218D02*
X38048Y71218D01*
X38059Y-65636D02*
X30059Y-65636D01*
X38059Y-65636D02*
X38059Y-72636D01*
X30059Y-72636D01*
X30059Y-65636D01*
X30059Y-69786D02*
X38059Y-69786D01*
X38059Y-66936D02*
X30059Y-66936D01*
X21059Y-65636D02*
X13059Y-65636D01*
X21059Y-65636D02*
X21059Y-72636D01*
X13059Y-72636D01*
X13059Y-65636D01*
X13059Y-69786D02*
X21059Y-69786D01*
X21059Y-66936D02*
X13059Y-66936D01*
X150424Y29233D02*
X150424Y37233D01*
X157424Y37233D01*
X157424Y29233D01*
X150424Y29233D01*
X150424Y32083D02*
X157424Y32083D01*
X157424Y34933D02*
X150424Y34933D01*
X150424Y20233D02*
X150424Y12233D01*
X150424Y20233D02*
X157424Y20233D01*
X157424Y12233D01*
X150424Y12233D01*
X150424Y15083D02*
X157424Y15083D01*
X157424Y17933D02*
X150424Y17933D01*
X144040Y37282D02*
X136040Y37282D01*
X144040Y37282D02*
X144040Y30282D01*
X136040Y30282D01*
X136040Y37282D01*
X136040Y33132D02*
X144040Y33132D01*
X144040Y35982D02*
X136040Y35982D01*
X127040Y37282D02*
X119040Y37282D01*
X127040Y37282D02*
X127040Y30282D01*
X119040Y30282D01*
X119040Y37282D01*
X119040Y33132D02*
X127040Y33132D01*
X127040Y35982D02*
X119040Y35982D01*
X269946Y-69016D02*
X269946Y-77016D01*
X262946Y-77016D01*
X262946Y-69016D01*
X269946Y-69016D01*
X269946Y-74166D02*
X262946Y-74166D01*
X262946Y-71316D02*
X269946Y-71316D01*
X269946Y-60016D02*
X269946Y-52016D01*
X269946Y-60016D02*
X262946Y-60016D01*
X262946Y-52016D01*
X269946Y-52016D01*
X269946Y-57166D02*
X262946Y-57166D01*
X262946Y-54316D02*
X269946Y-54316D01*
X157857Y-68145D02*
X157857Y-76145D01*
X157857Y-68145D02*
X164857Y-68145D01*
X164857Y-76145D01*
X157857Y-76145D01*
X157857Y-73295D02*
X164857Y-73295D01*
X164857Y-70445D02*
X157857Y-70445D01*
X157857Y-85145D02*
X157857Y-93145D01*
X157857Y-85145D02*
X164857Y-85145D01*
X164857Y-93145D01*
X157857Y-93145D01*
X157857Y-90295D02*
X164857Y-90295D01*
X164857Y-87445D02*
X157857Y-87445D01*
X275121Y22425D02*
X275121Y30425D01*
X275121Y22425D02*
X268121Y22425D01*
X268121Y30425D01*
X275121Y30425D01*
X275121Y25275D02*
X268121Y25275D01*
X268121Y28125D02*
X275121Y28125D01*
X275121Y39425D02*
X275121Y47425D01*
X275121Y39425D02*
X268121Y39425D01*
X268121Y47425D01*
X275121Y47425D01*
X275121Y42275D02*
X268121Y42275D01*
X268121Y45125D02*
X275121Y45125D01*
X106226Y37282D02*
X98226Y37282D01*
X106226Y37282D02*
X106226Y30282D01*
X98226Y30282D01*
X98226Y37282D01*
X98226Y33132D02*
X106226Y33132D01*
X106226Y35982D02*
X98226Y35982D01*
X89226Y37282D02*
X81226Y37282D01*
X89226Y37282D02*
X89226Y30282D01*
X81226Y30282D01*
X81226Y37282D01*
X81226Y33132D02*
X89226Y33132D01*
X89226Y35982D02*
X81226Y35982D01*
X287790Y36775D02*
X287790Y28775D01*
X280790Y28775D01*
X280790Y36775D01*
X287790Y36775D01*
X287790Y31625D02*
X280790Y31625D01*
X280790Y34475D02*
X287790Y34475D01*
X287790Y45775D02*
X287790Y53775D01*
X287790Y45775D02*
X280790Y45775D01*
X280790Y53775D01*
X287790Y53775D01*
X287790Y48625D02*
X280790Y48625D01*
X280790Y51475D02*
X287790Y51475D01*
X99535Y-25879D02*
X99535Y-33879D01*
X99535Y-25879D02*
X106535Y-25879D01*
X106535Y-33879D01*
X99535Y-33879D01*
X99535Y-31029D02*
X106535Y-31029D01*
X106535Y-28179D02*
X99535Y-28179D01*
X99535Y-42879D02*
X99535Y-50879D01*
X99535Y-42879D02*
X106535Y-42879D01*
X106535Y-50879D01*
X99535Y-50879D01*
X99535Y-48029D02*
X106535Y-48029D01*
X106535Y-45179D02*
X99535Y-45179D01*
X299395Y75938D02*
X299395Y83938D01*
X306395Y83938D01*
X306395Y75938D01*
X299395Y75938D01*
X299395Y78788D02*
X306395Y78788D01*
X306395Y81638D02*
X299395Y81638D01*
X299395Y66938D02*
X299395Y58938D01*
X299395Y66938D02*
X306395Y66938D01*
X306395Y58938D01*
X299395Y58938D01*
X299395Y61788D02*
X306395Y61788D01*
X306395Y64638D02*
X299395Y64638D01*
X343528Y72366D02*
X343528Y80366D01*
X350528Y80366D01*
X350528Y72366D01*
X343528Y72366D01*
X343528Y75216D02*
X350528Y75216D01*
X350528Y78066D02*
X343528Y78066D01*
X343528Y63366D02*
X343528Y55366D01*
X343528Y63366D02*
X350528Y63366D01*
X350528Y55366D01*
X343528Y55366D01*
X343528Y58216D02*
X350528Y58216D01*
X350528Y61066D02*
X343528Y61066D01*
X272852Y77525D02*
X272852Y85525D01*
X279852Y85525D01*
X279852Y77525D01*
X272852Y77525D01*
X272852Y80375D02*
X279852Y80375D01*
X279852Y83225D02*
X272852Y83225D01*
X272852Y68525D02*
X272852Y60525D01*
X272852Y68525D02*
X279852Y68525D01*
X279852Y60525D01*
X272852Y60525D01*
X272852Y63375D02*
X279852Y63375D01*
X279852Y66225D02*
X272852Y66225D01*
X266898Y68525D02*
X266898Y60525D01*
X259898Y60525D01*
X259898Y68525D01*
X266898Y68525D01*
X266898Y63375D02*
X259898Y63375D01*
X259898Y66225D02*
X266898Y66225D01*
X266898Y77525D02*
X266898Y85525D01*
X266898Y77525D02*
X259898Y77525D01*
X259898Y85525D01*
X266898Y85525D01*
X266898Y80375D02*
X259898Y80375D01*
X259898Y83225D02*
X266898Y83225D01*
X218734Y69329D02*
X218734Y61329D01*
X218734Y69329D02*
X225734Y69329D01*
X225734Y61329D01*
X218734Y61329D01*
X218734Y64179D02*
X225734Y64179D01*
X225734Y67029D02*
X218734Y67029D01*
X218734Y52329D02*
X218734Y44329D01*
X218734Y52329D02*
X225734Y52329D01*
X225734Y44329D01*
X218734Y44329D01*
X218734Y47179D02*
X225734Y47179D01*
X225734Y50029D02*
X218734Y50029D01*
X182555Y59815D02*
X176899Y65471D01*
X181849Y70421D01*
X187505Y64765D01*
X182555Y59815D01*
X185405Y62665D02*
X179705Y62665D01*
X176943Y65515D02*
X186755Y65515D01*
X183905Y68365D02*
X179793Y68365D01*
X188920Y53450D02*
X194576Y47794D01*
X188920Y53450D02*
X193870Y58400D01*
X199526Y52744D01*
X194576Y47794D01*
X197426Y50644D02*
X191726Y50644D01*
X188964Y53494D02*
X198776Y53494D01*
X195926Y56344D02*
X191814Y56344D01*
X191586Y68883D02*
X185930Y74539D01*
X190880Y79489D01*
X196536Y73833D01*
X191586Y68883D01*
X194436Y71733D02*
X188736Y71733D01*
X185974Y74583D02*
X195786Y74583D01*
X192936Y77433D02*
X188824Y77433D01*
X197950Y62519D02*
X203606Y56863D01*
X197950Y62519D02*
X202900Y67469D01*
X208556Y61813D01*
X203606Y56863D01*
X206456Y59713D02*
X200756Y59713D01*
X197994Y62563D02*
X207806Y62563D01*
X204956Y65413D02*
X200844Y65413D01*
X176761Y-49131D02*
X168761Y-49131D01*
X168761Y-42131D01*
X176761Y-42131D01*
X176761Y-49131D01*
X176761Y-46281D02*
X168761Y-46281D01*
X168761Y-43431D02*
X176761Y-43431D01*
X185761Y-49131D02*
X193761Y-49131D01*
X185761Y-49131D02*
X185761Y-42131D01*
X193761Y-42131D01*
X193761Y-49131D01*
X193761Y-46281D02*
X185761Y-46281D01*
X185761Y-43431D02*
X193761Y-43431D01*
X176812Y-62091D02*
X168812Y-62091D01*
X168812Y-55091D01*
X176812Y-55091D01*
X176812Y-62091D01*
X176812Y-59241D02*
X168812Y-59241D01*
X168812Y-56391D02*
X176812Y-56391D01*
X185812Y-62091D02*
X193812Y-62091D01*
X185812Y-62091D02*
X185812Y-55091D01*
X193812Y-55091D01*
X193812Y-62091D01*
X193812Y-59241D02*
X185812Y-59241D01*
X185812Y-56391D02*
X193812Y-56391D01*
X177490Y-85145D02*
X177490Y-93145D01*
X170490Y-93145D01*
X170490Y-85145D01*
X177490Y-85145D01*
X177490Y-90295D02*
X170490Y-90295D01*
X170490Y-87445D02*
X177490Y-87445D01*
X177490Y-76145D02*
X177490Y-68145D01*
X177490Y-76145D02*
X170490Y-76145D01*
X170490Y-68145D01*
X177490Y-68145D01*
X177490Y-73295D02*
X170490Y-73295D01*
X170490Y-70445D02*
X177490Y-70445D01*
X290965Y-69006D02*
X290965Y-77006D01*
X283965Y-77006D01*
X283965Y-69006D01*
X290965Y-69006D01*
X290965Y-74156D02*
X283965Y-74156D01*
X283965Y-71306D02*
X290965Y-71306D01*
X290965Y-60006D02*
X290965Y-52006D01*
X290965Y-60006D02*
X283965Y-60006D01*
X283965Y-52006D01*
X290965Y-52006D01*
X290965Y-57156D02*
X283965Y-57156D01*
X283965Y-54306D02*
X290965Y-54306D01*
X176255Y21381D02*
X176255Y29381D01*
X176255Y21381D02*
X169255Y21381D01*
X169255Y29381D01*
X176255Y29381D01*
X176255Y24231D02*
X169255Y24231D01*
X169255Y27081D02*
X176255Y27081D01*
X176255Y38381D02*
X176255Y46381D01*
X176255Y38381D02*
X169255Y38381D01*
X169255Y46381D01*
X176255Y46381D01*
X176255Y41231D02*
X169255Y41231D01*
X169255Y44081D02*
X176255Y44081D01*
X253690Y60525D02*
X253690Y68525D01*
X253690Y60525D02*
X246690Y60525D01*
X246690Y68525D01*
X253690Y68525D01*
X253690Y63375D02*
X246690Y63375D01*
X246690Y66225D02*
X253690Y66225D01*
X253690Y77525D02*
X253690Y85525D01*
X253690Y77525D02*
X246690Y77525D01*
X246690Y85525D01*
X253690Y85525D01*
X253690Y80375D02*
X246690Y80375D01*
X246690Y83225D02*
X253690Y83225D01*
X296950Y-52006D02*
X296950Y-60006D01*
X296950Y-52006D02*
X303950Y-52006D01*
X303950Y-60006D01*
X296950Y-60006D01*
X296950Y-57156D02*
X303950Y-57156D01*
X303950Y-54306D02*
X296950Y-54306D01*
X296950Y-69006D02*
X296950Y-77006D01*
X296950Y-69006D02*
X303950Y-69006D01*
X303950Y-77006D01*
X296950Y-77006D01*
X296950Y-74156D02*
X303950Y-74156D01*
X303950Y-71306D02*
X296950Y-71306D01*
D11*
X52410Y-73131D02*
X52410Y-75001D01*
X52410Y-73131D02*
X60780Y-73131D01*
X60780Y-75001D01*
X52410Y-75001D01*
X52410Y-82631D02*
X52410Y-84501D01*
X52410Y-82631D02*
X60780Y-82631D01*
X60780Y-84501D01*
X52410Y-84501D01*
X52410Y-92131D02*
X52410Y-94001D01*
X52410Y-92131D02*
X60780Y-92131D01*
X60780Y-94001D01*
X52410Y-94001D01*
X78412Y-94001D02*
X78412Y-92131D01*
X86782Y-92131D01*
X86782Y-94001D01*
X78412Y-94001D01*
X78412Y-75001D02*
X78412Y-73131D01*
X86782Y-73131D01*
X86782Y-75001D01*
X78412Y-75001D01*
D12*
X192199Y-30816D02*
X192199Y-29116D01*
X192199Y-30816D02*
X189657Y-30816D01*
X189657Y-29116D01*
X192199Y-29116D01*
D13*
X192529Y-23146D02*
X192529Y-21786D01*
X192529Y-23146D02*
X189327Y-23146D01*
X189327Y-21786D01*
X192529Y-21786D01*
D12*
X192199Y-15816D02*
X192199Y-14116D01*
X192199Y-15816D02*
X189657Y-15816D01*
X189657Y-14116D01*
X192199Y-14116D01*
X174199Y-14116D02*
X174199Y-15816D01*
X171657Y-15816D01*
X171657Y-14116D01*
X174199Y-14116D01*
D13*
X174529Y-21786D02*
X174529Y-23146D01*
X171327Y-23146D01*
X171327Y-21786D01*
X174529Y-21786D01*
D12*
X174199Y-29116D02*
X174199Y-30816D01*
X171657Y-30816D01*
X171657Y-29116D01*
X174199Y-29116D01*
D14*
X249904Y-17016D02*
X256026Y-17016D01*
X256026Y-17984D01*
X249904Y-17984D01*
X249904Y-17016D01*
X249904Y-12016D02*
X256026Y-12016D01*
X256026Y-12984D01*
X249904Y-12984D01*
X249904Y-12016D01*
X249904Y-7016D02*
X256026Y-7016D01*
X256026Y-7984D01*
X249904Y-7984D01*
X249904Y-7016D01*
X249904Y-2016D02*
X256026Y-2016D01*
X256026Y-2984D01*
X249904Y-2984D01*
X249904Y-2016D01*
X249904Y2984D02*
X256026Y2984D01*
X256026Y2016D01*
X249904Y2016D01*
X249904Y2984D01*
X249904Y7984D02*
X256026Y7984D01*
X256026Y7016D01*
X249904Y7016D01*
X249904Y7984D01*
X249904Y12984D02*
X256026Y12984D01*
X256026Y12016D01*
X249904Y12016D01*
X249904Y12984D01*
X249904Y17984D02*
X256026Y17984D01*
X256026Y17016D01*
X249904Y17016D01*
X249904Y17984D01*
X244981Y21939D02*
X244981Y28061D01*
X245949Y28061D01*
X245949Y21939D01*
X244981Y21939D01*
X244981Y23723D02*
X245949Y23723D01*
X245949Y25507D02*
X244981Y25507D01*
X244981Y27291D02*
X245949Y27291D01*
X239981Y28061D02*
X239981Y21939D01*
X239981Y28061D02*
X240949Y28061D01*
X240949Y21939D01*
X239981Y21939D01*
X239981Y23723D02*
X240949Y23723D01*
X240949Y25507D02*
X239981Y25507D01*
X239981Y27291D02*
X240949Y27291D01*
X234981Y28061D02*
X234981Y21939D01*
X234981Y28061D02*
X235949Y28061D01*
X235949Y21939D01*
X234981Y21939D01*
X234981Y23723D02*
X235949Y23723D01*
X235949Y25507D02*
X234981Y25507D01*
X234981Y27291D02*
X235949Y27291D01*
X229981Y28061D02*
X229981Y21939D01*
X229981Y28061D02*
X230949Y28061D01*
X230949Y21939D01*
X229981Y21939D01*
X229981Y23723D02*
X230949Y23723D01*
X230949Y25507D02*
X229981Y25507D01*
X229981Y27291D02*
X230949Y27291D01*
X224981Y28061D02*
X224981Y21939D01*
X224981Y28061D02*
X225949Y28061D01*
X225949Y21939D01*
X224981Y21939D01*
X224981Y23723D02*
X225949Y23723D01*
X225949Y25507D02*
X224981Y25507D01*
X224981Y27291D02*
X225949Y27291D01*
X219981Y28061D02*
X219981Y21939D01*
X219981Y28061D02*
X220949Y28061D01*
X220949Y21939D01*
X219981Y21939D01*
X219981Y23723D02*
X220949Y23723D01*
X220949Y25507D02*
X219981Y25507D01*
X219981Y27291D02*
X220949Y27291D01*
X214981Y28061D02*
X214981Y21939D01*
X214981Y28061D02*
X215949Y28061D01*
X215949Y21939D01*
X214981Y21939D01*
X214981Y23723D02*
X215949Y23723D01*
X215949Y25507D02*
X214981Y25507D01*
X214981Y27291D02*
X215949Y27291D01*
X209981Y28061D02*
X209981Y21939D01*
X209981Y28061D02*
X210949Y28061D01*
X210949Y21939D01*
X209981Y21939D01*
X209981Y23723D02*
X210949Y23723D01*
X210949Y25507D02*
X209981Y25507D01*
X209981Y27291D02*
X210949Y27291D01*
X206026Y17016D02*
X199904Y17016D01*
X199904Y17984D01*
X206026Y17984D01*
X206026Y17016D01*
X206026Y12016D02*
X199904Y12016D01*
X199904Y12984D01*
X206026Y12984D01*
X206026Y12016D01*
X206026Y7016D02*
X199904Y7016D01*
X199904Y7984D01*
X206026Y7984D01*
X206026Y7016D01*
X206026Y2016D02*
X199904Y2016D01*
X199904Y2984D01*
X206026Y2984D01*
X206026Y2016D01*
X206026Y-2984D02*
X199904Y-2984D01*
X199904Y-2016D01*
X206026Y-2016D01*
X206026Y-2984D01*
X206026Y-7984D02*
X199904Y-7984D01*
X199904Y-7016D01*
X206026Y-7016D01*
X206026Y-7984D01*
X206026Y-12984D02*
X199904Y-12984D01*
X199904Y-12016D01*
X206026Y-12016D01*
X206026Y-12984D01*
X206026Y-17984D02*
X199904Y-17984D01*
X199904Y-17016D01*
X206026Y-17016D01*
X206026Y-17984D01*
X210949Y-21939D02*
X210949Y-28061D01*
X209981Y-28061D01*
X209981Y-21939D01*
X210949Y-21939D01*
X210949Y-26277D02*
X209981Y-26277D01*
X209981Y-24493D02*
X210949Y-24493D01*
X210949Y-22709D02*
X209981Y-22709D01*
X215949Y-21939D02*
X215949Y-28061D01*
X214981Y-28061D01*
X214981Y-21939D01*
X215949Y-21939D01*
X215949Y-26277D02*
X214981Y-26277D01*
X214981Y-24493D02*
X215949Y-24493D01*
X215949Y-22709D02*
X214981Y-22709D01*
X220949Y-21939D02*
X220949Y-28061D01*
X219981Y-28061D01*
X219981Y-21939D01*
X220949Y-21939D01*
X220949Y-26277D02*
X219981Y-26277D01*
X219981Y-24493D02*
X220949Y-24493D01*
X220949Y-22709D02*
X219981Y-22709D01*
X225949Y-21939D02*
X225949Y-28061D01*
X224981Y-28061D01*
X224981Y-21939D01*
X225949Y-21939D01*
X225949Y-26277D02*
X224981Y-26277D01*
X224981Y-24493D02*
X225949Y-24493D01*
X225949Y-22709D02*
X224981Y-22709D01*
X230949Y-21939D02*
X230949Y-28061D01*
X229981Y-28061D01*
X229981Y-21939D01*
X230949Y-21939D01*
X230949Y-26277D02*
X229981Y-26277D01*
X229981Y-24493D02*
X230949Y-24493D01*
X230949Y-22709D02*
X229981Y-22709D01*
X235949Y-21939D02*
X235949Y-28061D01*
X234981Y-28061D01*
X234981Y-21939D01*
X235949Y-21939D01*
X235949Y-26277D02*
X234981Y-26277D01*
X234981Y-24493D02*
X235949Y-24493D01*
X235949Y-22709D02*
X234981Y-22709D01*
X240949Y-21939D02*
X240949Y-28061D01*
X239981Y-28061D01*
X239981Y-21939D01*
X240949Y-21939D01*
X240949Y-26277D02*
X239981Y-26277D01*
X239981Y-24493D02*
X240949Y-24493D01*
X240949Y-22709D02*
X239981Y-22709D01*
X245949Y-21939D02*
X245949Y-28061D01*
X244981Y-28061D01*
X244981Y-21939D01*
X245949Y-21939D01*
X245949Y-26277D02*
X244981Y-26277D01*
X244981Y-24493D02*
X245949Y-24493D01*
X245949Y-22709D02*
X244981Y-22709D01*
D15*
X235965Y-8000D03*
X219965Y-8000D03*
X235965Y8000D03*
X219965Y8000D03*
D16*
X82236Y86555D02*
X82236Y88629D01*
X95232Y88629D01*
X95232Y86555D01*
X82236Y86555D01*
X82236Y75929D02*
X82236Y73855D01*
X82236Y75929D02*
X95232Y75929D01*
X95232Y73855D01*
X82236Y73855D01*
X82236Y63229D02*
X82236Y61155D01*
X82236Y63229D02*
X95232Y63229D01*
X95232Y61155D01*
X82236Y61155D01*
X82236Y50529D02*
X82236Y48455D01*
X82236Y50529D02*
X95232Y50529D01*
X95232Y48455D01*
X82236Y48455D01*
X147260Y48455D02*
X147260Y50529D01*
X160256Y50529D01*
X160256Y48455D01*
X147260Y48455D01*
X147260Y61155D02*
X147260Y63229D01*
X160256Y63229D01*
X160256Y61155D01*
X147260Y61155D01*
X147260Y73855D02*
X147260Y75929D01*
X160256Y75929D01*
X160256Y73855D01*
X147260Y73855D01*
X147260Y86555D02*
X147260Y88629D01*
X160256Y88629D01*
X160256Y86555D01*
X147260Y86555D01*
D17*
X150932Y-12387D02*
X150932Y-18987D01*
X149532Y-18987D01*
X149532Y-12387D01*
X150932Y-12387D01*
X150932Y-17657D02*
X149532Y-17657D01*
X149532Y-16327D02*
X150932Y-16327D01*
X150932Y-14997D02*
X149532Y-14997D01*
X149532Y-13667D02*
X150932Y-13667D01*
X145932Y-12387D02*
X145932Y-18987D01*
X144532Y-18987D01*
X144532Y-12387D01*
X145932Y-12387D01*
X145932Y-17657D02*
X144532Y-17657D01*
X144532Y-16327D02*
X145932Y-16327D01*
X145932Y-14997D02*
X144532Y-14997D01*
X144532Y-13667D02*
X145932Y-13667D01*
X140932Y-12387D02*
X140932Y-18987D01*
X139532Y-18987D01*
X139532Y-12387D01*
X140932Y-12387D01*
X140932Y-17657D02*
X139532Y-17657D01*
X139532Y-16327D02*
X140932Y-16327D01*
X140932Y-14997D02*
X139532Y-14997D01*
X139532Y-13667D02*
X140932Y-13667D01*
X135932Y-12387D02*
X135932Y-18987D01*
X134532Y-18987D01*
X134532Y-12387D01*
X135932Y-12387D01*
X135932Y-17657D02*
X134532Y-17657D01*
X134532Y-16327D02*
X135932Y-16327D01*
X135932Y-14997D02*
X134532Y-14997D01*
X134532Y-13667D02*
X135932Y-13667D01*
X130932Y-12387D02*
X130932Y-18987D01*
X129532Y-18987D01*
X129532Y-12387D01*
X130932Y-12387D01*
X130932Y-17657D02*
X129532Y-17657D01*
X129532Y-16327D02*
X130932Y-16327D01*
X130932Y-14997D02*
X129532Y-14997D01*
X129532Y-13667D02*
X130932Y-13667D01*
X125932Y-12387D02*
X125932Y-18987D01*
X124532Y-18987D01*
X124532Y-12387D01*
X125932Y-12387D01*
X125932Y-17657D02*
X124532Y-17657D01*
X124532Y-16327D02*
X125932Y-16327D01*
X125932Y-14997D02*
X124532Y-14997D01*
X124532Y-13667D02*
X125932Y-13667D01*
X121032Y-23887D02*
X114432Y-23887D01*
X114432Y-22487D01*
X121032Y-22487D01*
X121032Y-23887D01*
X121032Y-22557D02*
X114432Y-22557D01*
X114432Y-28887D02*
X121032Y-28887D01*
X114432Y-28887D02*
X114432Y-27487D01*
X121032Y-27487D01*
X121032Y-28887D01*
X121032Y-27557D02*
X114432Y-27557D01*
X114432Y-33887D02*
X121032Y-33887D01*
X114432Y-33887D02*
X114432Y-32487D01*
X121032Y-32487D01*
X121032Y-33887D01*
X121032Y-32557D02*
X114432Y-32557D01*
X114432Y-38887D02*
X121032Y-38887D01*
X114432Y-38887D02*
X114432Y-37487D01*
X121032Y-37487D01*
X121032Y-38887D01*
X121032Y-37557D02*
X114432Y-37557D01*
X114432Y-43887D02*
X121032Y-43887D01*
X114432Y-43887D02*
X114432Y-42487D01*
X121032Y-42487D01*
X121032Y-43887D01*
X121032Y-42557D02*
X114432Y-42557D01*
X114432Y-48887D02*
X121032Y-48887D01*
X114432Y-48887D02*
X114432Y-47487D01*
X121032Y-47487D01*
X121032Y-48887D01*
X121032Y-47557D02*
X114432Y-47557D01*
X124532Y-52387D02*
X124532Y-58987D01*
X124532Y-52387D02*
X125932Y-52387D01*
X125932Y-58987D01*
X124532Y-58987D01*
X124532Y-57657D02*
X125932Y-57657D01*
X125932Y-56327D02*
X124532Y-56327D01*
X124532Y-54997D02*
X125932Y-54997D01*
X125932Y-53667D02*
X124532Y-53667D01*
X129532Y-52387D02*
X129532Y-58987D01*
X129532Y-52387D02*
X130932Y-52387D01*
X130932Y-58987D01*
X129532Y-58987D01*
X129532Y-57657D02*
X130932Y-57657D01*
X130932Y-56327D02*
X129532Y-56327D01*
X129532Y-54997D02*
X130932Y-54997D01*
X130932Y-53667D02*
X129532Y-53667D01*
X134532Y-52387D02*
X134532Y-58987D01*
X134532Y-52387D02*
X135932Y-52387D01*
X135932Y-58987D01*
X134532Y-58987D01*
X134532Y-57657D02*
X135932Y-57657D01*
X135932Y-56327D02*
X134532Y-56327D01*
X134532Y-54997D02*
X135932Y-54997D01*
X135932Y-53667D02*
X134532Y-53667D01*
X139532Y-52387D02*
X139532Y-58987D01*
X139532Y-52387D02*
X140932Y-52387D01*
X140932Y-58987D01*
X139532Y-58987D01*
X139532Y-57657D02*
X140932Y-57657D01*
X140932Y-56327D02*
X139532Y-56327D01*
X139532Y-54997D02*
X140932Y-54997D01*
X140932Y-53667D02*
X139532Y-53667D01*
X144532Y-52387D02*
X144532Y-58987D01*
X144532Y-52387D02*
X145932Y-52387D01*
X145932Y-58987D01*
X144532Y-58987D01*
X144532Y-57657D02*
X145932Y-57657D01*
X145932Y-56327D02*
X144532Y-56327D01*
X144532Y-54997D02*
X145932Y-54997D01*
X145932Y-53667D02*
X144532Y-53667D01*
X149532Y-52387D02*
X149532Y-58987D01*
X149532Y-52387D02*
X150932Y-52387D01*
X150932Y-58987D01*
X149532Y-58987D01*
X149532Y-57657D02*
X150932Y-57657D01*
X150932Y-56327D02*
X149532Y-56327D01*
X149532Y-54997D02*
X150932Y-54997D01*
X150932Y-53667D02*
X149532Y-53667D01*
X154432Y-47487D02*
X161032Y-47487D01*
X161032Y-48887D01*
X154432Y-48887D01*
X154432Y-47487D01*
X154432Y-47557D02*
X161032Y-47557D01*
X161032Y-42487D02*
X154432Y-42487D01*
X161032Y-42487D02*
X161032Y-43887D01*
X154432Y-43887D01*
X154432Y-42487D01*
X154432Y-42557D02*
X161032Y-42557D01*
X161032Y-37487D02*
X154432Y-37487D01*
X161032Y-37487D02*
X161032Y-38887D01*
X154432Y-38887D01*
X154432Y-37487D01*
X154432Y-37557D02*
X161032Y-37557D01*
X161032Y-32487D02*
X154432Y-32487D01*
X161032Y-32487D02*
X161032Y-33887D01*
X154432Y-33887D01*
X154432Y-32487D01*
X154432Y-32557D02*
X161032Y-32557D01*
X161032Y-27487D02*
X154432Y-27487D01*
X161032Y-27487D02*
X161032Y-28887D01*
X154432Y-28887D01*
X154432Y-27487D01*
X154432Y-27557D02*
X161032Y-27557D01*
X161032Y-22487D02*
X154432Y-22487D01*
X161032Y-22487D02*
X161032Y-23887D01*
X154432Y-23887D01*
X154432Y-22487D01*
X154432Y-22557D02*
X161032Y-22557D01*
D18*
X128732Y-26687D03*
X137732Y-35687D03*
X137732Y-26687D03*
X146732Y-26687D03*
X146732Y-44687D03*
X128732Y-44687D03*
X137732Y-44687D03*
X146732Y-35687D03*
X128732Y-35687D03*
D19*
X225034Y-58266D02*
X232534Y-58266D01*
X225034Y-58266D02*
X225034Y-52766D01*
X232534Y-52766D01*
X232534Y-58266D01*
X232534Y-53041D02*
X225034Y-53041D01*
X248034Y-76266D02*
X255534Y-76266D01*
X248034Y-76266D02*
X248034Y-70766D01*
X255534Y-70766D01*
X255534Y-76266D01*
X255534Y-71041D02*
X248034Y-71041D01*
X248034Y-58266D02*
X255534Y-58266D01*
X248034Y-58266D02*
X248034Y-52766D01*
X255534Y-52766D01*
X255534Y-58266D01*
X255534Y-53041D02*
X248034Y-53041D01*
X232534Y-76266D02*
X225034Y-76266D01*
X225034Y-70766D01*
X232534Y-70766D01*
X232534Y-76266D01*
X232534Y-71041D02*
X225034Y-71041D01*
D20*
X339636Y28662D02*
X339636Y38462D01*
X355436Y38462D01*
X355436Y28662D01*
X339636Y28662D01*
X339636Y32652D02*
X355436Y32652D01*
X355436Y36642D02*
X339636Y36642D01*
X339636Y-56538D02*
X339636Y-66338D01*
X339636Y-56538D02*
X355436Y-56538D01*
X355436Y-66338D01*
X339636Y-66338D01*
X339636Y-62348D02*
X355436Y-62348D01*
X355436Y-58358D02*
X339636Y-58358D01*
D21*
X66865Y55750D02*
X58865Y55750D01*
X28865Y55750D02*
X16865Y55750D01*
D22*
X66515Y8250D02*
X66515Y6750D01*
X66515Y8250D02*
X76515Y8250D01*
X76515Y6750D01*
X66515Y6750D01*
X66515Y8175D02*
X76515Y8175D01*
X66515Y3250D02*
X66515Y1750D01*
X66515Y3250D02*
X76515Y3250D01*
X76515Y1750D01*
X66515Y1750D01*
X66515Y3175D02*
X76515Y3175D01*
X66515Y-1750D02*
X66515Y-3250D01*
X66515Y-1750D02*
X76515Y-1750D01*
X76515Y-3250D01*
X66515Y-3250D01*
X66515Y-1825D02*
X76515Y-1825D01*
X66515Y-6750D02*
X66515Y-8250D01*
X66515Y-6750D02*
X76515Y-6750D01*
X76515Y-8250D01*
X66515Y-8250D01*
X66515Y-6825D02*
X76515Y-6825D01*
X66515Y11750D02*
X66515Y13250D01*
X76515Y13250D01*
X76515Y11750D01*
X66515Y11750D01*
X66515Y13175D02*
X76515Y13175D01*
X66515Y16750D02*
X66515Y18250D01*
X76515Y18250D01*
X76515Y16750D01*
X66515Y16750D01*
X66515Y18175D02*
X76515Y18175D01*
X66515Y-11750D02*
X66515Y-13250D01*
X66515Y-11750D02*
X76515Y-11750D01*
X76515Y-13250D01*
X66515Y-13250D01*
X66515Y-11825D02*
X76515Y-11825D01*
X66515Y-16750D02*
X66515Y-18250D01*
X66515Y-16750D02*
X76515Y-16750D01*
X76515Y-18250D01*
X66515Y-18250D01*
X66515Y-16825D02*
X76515Y-16825D01*
D10*
X67265Y22500D02*
X67265Y25500D01*
X75765Y25500D01*
X75765Y22500D01*
X67265Y22500D01*
X67265Y25350D02*
X75765Y25350D01*
X67265Y30500D02*
X67265Y33500D01*
X75765Y33500D01*
X75765Y30500D01*
X67265Y30500D01*
X67265Y33350D02*
X75765Y33350D01*
X67265Y-22500D02*
X67265Y-25500D01*
X67265Y-22500D02*
X75765Y-22500D01*
X75765Y-25500D01*
X67265Y-25500D01*
X67265Y-22650D02*
X75765Y-22650D01*
X67265Y-30500D02*
X67265Y-33500D01*
X67265Y-30500D02*
X75765Y-30500D01*
X75765Y-33500D01*
X67265Y-33500D01*
X67265Y-30650D02*
X75765Y-30650D01*
D21*
X66865Y-55750D02*
X58865Y-55750D01*
X28865Y-55750D02*
X16865Y-55750D01*
D10*
X83368Y-33727D02*
X83368Y-25727D01*
X90368Y-25727D01*
X90368Y-33727D01*
X83368Y-33727D01*
X83368Y-30877D02*
X90368Y-30877D01*
X90368Y-28027D02*
X83368Y-28027D01*
X83368Y-42727D02*
X83368Y-50727D01*
X83368Y-42727D02*
X90368Y-42727D01*
X90368Y-50727D01*
X83368Y-50727D01*
X83368Y-47877D02*
X90368Y-47877D01*
X90368Y-45027D02*
X83368Y-45027D01*
D12*
X72406Y104042D02*
X55706Y104042D01*
X55706Y111742D01*
X72406Y111742D01*
X72406Y104042D01*
X72406Y107177D02*
X55706Y107177D01*
X55706Y110312D02*
X72406Y110312D01*
X72406Y65042D02*
X55706Y65042D01*
X55706Y72742D01*
X72406Y72742D01*
X72406Y65042D01*
X72406Y68177D02*
X55706Y68177D01*
X55706Y71312D02*
X72406Y71312D01*
D10*
X183190Y-85879D02*
X190190Y-85879D01*
X190190Y-92879D01*
X183190Y-92879D01*
X183190Y-85879D01*
X183190Y-90029D02*
X190190Y-90029D01*
X190190Y-87179D02*
X183190Y-87179D01*
X183190Y-68339D02*
X190190Y-68339D01*
X190190Y-75339D01*
X183190Y-75339D01*
X183190Y-68339D01*
X183190Y-72489D02*
X190190Y-72489D01*
X190190Y-69639D02*
X183190Y-69639D01*
D12*
X106838Y-14271D02*
X104138Y-14271D01*
X106838Y-14271D02*
X106838Y-16971D01*
X104138Y-16971D01*
X104138Y-14271D01*
X84838Y-14271D02*
X82138Y-14271D01*
X84838Y-14271D02*
X84838Y-16971D01*
X82138Y-16971D01*
X82138Y-14271D01*
D10*
X149804Y-85145D02*
X149804Y-93145D01*
X142804Y-93145D01*
X142804Y-85145D01*
X149804Y-85145D01*
X149804Y-90295D02*
X142804Y-90295D01*
X142804Y-87445D02*
X149804Y-87445D01*
X149804Y-76145D02*
X149804Y-68145D01*
X149804Y-76145D02*
X142804Y-76145D01*
X142804Y-68145D01*
X149804Y-68145D01*
X149804Y-73295D02*
X142804Y-73295D01*
X142804Y-70445D02*
X149804Y-70445D01*
X136977Y-78423D02*
X129977Y-78423D01*
X129977Y-71423D01*
X136977Y-71423D01*
X136977Y-78423D01*
X136977Y-75573D02*
X129977Y-75573D01*
X129977Y-72723D02*
X136977Y-72723D01*
X136977Y-95963D02*
X129977Y-95963D01*
X129977Y-88963D01*
X136977Y-88963D01*
X136977Y-95963D01*
X136977Y-93113D02*
X129977Y-93113D01*
X129977Y-90263D02*
X136977Y-90263D01*
X93020Y-79193D02*
X93020Y-71193D01*
X100020Y-71193D01*
X100020Y-79193D01*
X93020Y-79193D01*
X93020Y-76343D02*
X100020Y-76343D01*
X100020Y-73493D02*
X93020Y-73493D01*
X93020Y-88193D02*
X93020Y-96193D01*
X93020Y-88193D02*
X100020Y-88193D01*
X100020Y-96193D01*
X93020Y-96193D01*
X93020Y-93343D02*
X100020Y-93343D01*
X100020Y-90493D02*
X93020Y-90493D01*
X105974Y-78296D02*
X112974Y-78296D01*
X105974Y-78296D02*
X105974Y-71296D01*
X112974Y-71296D01*
X112974Y-78296D01*
X112974Y-75446D02*
X105974Y-75446D01*
X105974Y-72596D02*
X112974Y-72596D01*
X112974Y-95836D02*
X105974Y-95836D01*
X105974Y-88836D01*
X112974Y-88836D01*
X112974Y-95836D01*
X112974Y-92986D02*
X105974Y-92986D01*
X105974Y-90136D02*
X112974Y-90136D01*
X141805Y-579D02*
X149805Y-579D01*
X141805Y-579D02*
X141805Y6421D01*
X149805Y6421D01*
X149805Y-579D01*
X149805Y2271D02*
X141805Y2271D01*
X141805Y5121D02*
X149805Y5121D01*
X158805Y-579D02*
X166805Y-579D01*
X158805Y-579D02*
X158805Y6421D01*
X166805Y6421D01*
X166805Y-579D01*
X166805Y2271D02*
X158805Y2271D01*
X158805Y5121D02*
X166805Y5121D01*
D11*
X128692Y833D02*
X128692Y-1037D01*
X120322Y-1037D01*
X120322Y833D01*
X128692Y833D01*
X128692Y8463D02*
X128692Y10333D01*
X128692Y8463D02*
X120322Y8463D01*
X120322Y10333D01*
X128692Y10333D01*
X128692Y17963D02*
X128692Y19833D01*
X128692Y17963D02*
X120322Y17963D01*
X120322Y19833D01*
X128692Y19833D01*
X102690Y19833D02*
X102690Y17963D01*
X94320Y17963D01*
X94320Y19833D01*
X102690Y19833D01*
X102690Y833D02*
X102690Y-1037D01*
X94320Y-1037D01*
X94320Y833D01*
X102690Y833D01*
X94320Y8463D02*
X94320Y10333D01*
X102690Y10333D01*
X102690Y8463D01*
X94320Y8463D01*
M02*
